PathFileType	4	(X/Y/Z)	 Jog05.trc
DataRate	CameraRate	NumFrames	NumMarkers	Units	OrigDataRate	OrigDataStartFrame	OrigNumFrames
250	250	14	31	m	250	326	651
Frame#	Time	RASI			LASI			RAIC			LAIC			RTH2			RTB3			RMT1			RMT5			LTH1			LTH2			LTH3			LCAL			LMT1			LMT5			CLAV			STRN			RACR			LACR			RTH1			RTH3			LTB1			LTB2			C7			LPSI			T10			RPSI			LTB3			RTB1			RCAL			RTB2			C_30			
		X1	Y1	Z1	X2	Y2	Z2	X3	Y3	Z3	X4	Y4	Z4	X5	Y5	Z5	X6	Y6	Z6	X7	Y7	Z7	X8	Y8	Z8	X9	Y9	Z9	X10	Y10	Z10	X11	Y11	Z11	X12	Y12	Z12	X13	Y13	Z13	X14	Y14	Z14	X15	Y15	Z15	X16	Y16	Z16	X17	Y17	Z17	X18	Y18	Z18	X19	Y19	Z19	X20	Y20	Z20	X21	Y21	Z21	X22	Y22	Z22	X23	Y23	Z23	X24	Y24	Z24	X25	Y25	Z25	X26	Y26	Z26	X27	Y27	Z27	X28	Y28	Z28	X29	Y29	Z29	X30	Y30	Z30	X31	Y31	Z31	
326	1.3040	0.794083	0.908858	0.480839	0.800502	0.887421	0.243545	0.720089	0.994998	0.517588	0.744237	0.978682	0.206695	0.812962	0.723694	0.516940	0.776453	0.207558	0.363429	0.817596	0.039777	0.354040	0.807277	0.041569	0.447435	0.758108	0.778302	0.187410	0.822228	0.698099	0.194225	0.785234	0.601971	0.172110	0.382859	0.601876	0.276179	0.338306	0.387616	0.278449	0.332817	0.409086	0.190781	0.840837	1.348268	0.386181	0.864533	1.119158	0.383124	0.758436	1.383086	0.560932	0.827447	1.390948	0.201146	0.732052	0.785107	0.542503	0.797482	0.625180	0.500904	0.683344	0.412435	0.259902	0.615476	0.433369	0.209475	0.738366	1.449414	0.367119	0.621258	0.970629	0.323750	0.645453	1.168482	0.351843	0.617549	0.972936	0.397112	0.553048	0.453158	0.265243	0.842301	0.327395	0.361862	0.601460	0.045341	0.367973	0.827320	0.262097	0.413005	0.865637	0.468336	0.331395	
327	1.3080	0.809321	0.908258	0.480481	0.815190	0.886944	0.243274	0.734446	0.995043	0.518281	0.757964	0.979017	0.206958	0.826049	0.721370	0.516829	0.778988	0.205795	0.363219	0.817809	0.039642	0.354076	0.807390	0.041467	0.447468	0.774471	0.778365	0.187006	0.841086	0.700083	0.193513	0.806964	0.603017	0.170965	0.405177	0.596307	0.276372	0.366515	0.381048	0.278388	0.361136	0.402168	0.190900	0.856372	1.347008	0.385330	0.879756	1.117695	0.381527	0.776439	1.382233	0.560719	0.841009	1.390178	0.200758	0.746761	0.785013	0.542557	0.807215	0.623232	0.500341	0.710171	0.412567	0.259671	0.641753	0.432081	0.209303	0.753753	1.448851	0.367346	0.636502	0.970896	0.324139	0.660675	1.168056	0.352431	0.632754	0.973309	0.397443	0.579151	0.451015	0.265237	0.847440	0.324114	0.361772	0.601774	0.046234	0.367771	0.830721	0.259137	0.412971	0.873652	0.463901	0.331364	
328	1.3120	0.823533	0.908143	0.480904	0.830175	0.887044	0.243199	0.749074	0.995453	0.518758	0.771886	0.979704	0.207150	0.838518	0.718925	0.515962	0.781390	0.204366	0.362909	0.817903	0.039550	0.354157	0.807446	0.041404	0.447493	0.790816	0.778752	0.186606	0.859883	0.702473	0.192910	0.828840	0.604532	0.170041	0.427215	0.590306	0.276568	0.394907	0.374053	0.278676	0.389592	0.394986	0.190850	0.871858	1.346259	0.384392	0.894911	1.116616	0.380121	0.794315	1.381893	0.560344	0.854474	1.389972	0.200141	0.761462	0.784899	0.542553	0.816666	0.621356	0.499853	0.736521	0.413247	0.259594	0.667984	0.430855	0.209420	0.769139	1.448576	0.367541	0.651651	0.971343	0.324509	0.675839	1.167883	0.353011	0.647965	0.973757	0.397720	0.605306	0.448949	0.265343	0.852221	0.321369	0.361440	0.602144	0.047222	0.367677	0.833991	0.257001	0.412745	0.877655	0.459439	0.330633	
329	1.3160	0.838592	0.908109	0.480727	0.844080	0.887134	0.242598	0.764090	0.996053	0.519279	0.785250	0.980521	0.206658	0.850545	0.716546	0.515298	0.783582	0.203721	0.362676	0.818075	0.039501	0.354157	0.807491	0.041330	0.447506	0.807154	0.779523	0.186165	0.878644	0.705367	0.192390	0.850746	0.606490	0.169383	0.449014	0.583766	0.276897	0.423429	0.366572	0.279233	0.417879	0.387271	0.190985	0.887287	1.345898	0.383339	0.910063	1.115952	0.378677	0.812279	1.382066	0.559878	0.867620	1.390232	0.199404	0.776006	0.784829	0.542457	0.825957	0.619635	0.499453	0.763287	0.414027	0.259697	0.694240	0.429658	0.209654	0.784392	1.448730	0.367746	0.666925	0.971896	0.324792	0.691144	1.167980	0.353563	0.663321	0.974439	0.398043	0.631217	0.446653	0.265572	0.856659	0.319232	0.361027	0.602357	0.048182	0.367313	0.837153	0.255262	0.412471	0.884490	0.455820	0.330401	
330	1.3200	0.853576	0.908859	0.480625	0.860103	0.888045	0.242908	0.779255	0.996893	0.519484	0.799831	0.981722	0.206632	0.862761	0.714317	0.514991	0.786368	0.203038	0.362338	0.818268	0.039433	0.354144	0.807534	0.041304	0.447464	0.823512	0.780668	0.185719	0.897253	0.708660	0.191844	0.872328	0.609102	0.168691	0.470721	0.576653	0.277278	0.452175	0.358775	0.279530	0.446268	0.379178	0.191885	0.902639	1.345985	0.382299	0.925264	1.115834	0.377241	0.829951	1.382656	0.559264	0.880510	1.390903	0.198555	0.790304	0.784762	0.542275	0.835220	0.618130	0.499236	0.789961	0.414999	0.259822	0.720327	0.428566	0.210080	0.799638	1.449273	0.367920	0.682232	0.972653	0.325008	0.706542	1.168304	0.354112	0.678671	0.975160	0.398215	0.657268	0.444657	0.266089	0.860789	0.317596	0.360575	0.602788	0.049368	0.367077	0.840620	0.253920	0.411934	0.890742	0.452546	0.330113	
331	1.3240	0.868820	0.909637	0.480403	0.875425	0.888930	0.242914	0.794579	0.998006	0.519393	0.815121	0.983300	0.206870	0.874691	0.712462	0.514355	0.788764	0.202860	0.362016	0.818474	0.039317	0.354076	0.807603	0.041291	0.447429	0.839848	0.782172	0.185196	0.915776	0.712336	0.191431	0.893691	0.612114	0.168072	0.492010	0.569214	0.277720	0.481049	0.350673	0.279797	0.474909	0.371013	0.191968	0.917984	1.346546	0.381210	0.940566	1.116252	0.375720	0.847607	1.383560	0.558652	0.893220	1.391950	0.197629	0.804267	0.784826	0.541974	0.844667	0.617065	0.498710	0.816336	0.416109	0.260238	0.746062	0.427426	0.210659	0.814886	1.450157	0.368105	0.697639	0.973562	0.325056	0.721957	1.168899	0.354681	0.694133	0.976117	0.398277	0.683167	0.442552	0.266667	0.864703	0.316471	0.360068	0.603093	0.050630	0.366658	0.844266	0.252682	0.411300	0.896732	0.449914	0.329981	
332	1.3280	0.884027	0.910479	0.480319	0.890384	0.889874	0.242573	0.810040	0.999168	0.519367	0.830316	0.984876	0.206778	0.886428	0.711008	0.513720	0.791145	0.202866	0.361658	0.818737	0.039227	0.354097	0.807669	0.041288	0.447374	0.856185	0.784024	0.184668	0.934154	0.716386	0.191014	0.914815	0.615555	0.167625	0.513583	0.560973	0.278421	0.510112	0.342240	0.280091	0.503680	0.362438	0.192358	0.933267	1.347602	0.380023	0.955971	1.117219	0.374204	0.865249	1.384874	0.557976	0.906166	1.393491	0.196756	0.817932	0.785088	0.541662	0.854108	0.616323	0.498524	0.844007	0.417256	0.260074	0.772423	0.426595	0.211174	0.830113	1.451316	0.368250	0.713094	0.974674	0.325063	0.737510	1.169702	0.355285	0.709646	0.977190	0.398225	0.708932	0.440439	0.267383	0.868301	0.315500	0.359333	0.603659	0.052248	0.366339	0.847578	0.251711	0.410434	0.900970	0.448182	0.329320	
333	1.3320	0.899717	0.911745	0.479913	0.907181	0.891765	0.243485	0.825685	1.000500	0.519102	0.845639	0.986673	0.206588	0.898008	0.710059	0.513177	0.792790	0.203273	0.361250	0.819004	0.039183	0.354119	0.807736	0.041281	0.447382	0.872516	0.786261	0.184137	0.952359	0.720769	0.190567	0.935902	0.619412	0.167456	0.534999	0.552286	0.279042	0.539454	0.333529	0.280541	0.533025	0.353708	0.192743	0.948517	1.349091	0.378767	0.971480	1.118644	0.372621	0.882894	1.386509	0.557438	0.918697	1.395331	0.195891	0.831254	0.785493	0.541292	0.863721	0.616019	0.498037	0.869960	0.419081	0.260971	0.798295	0.425698	0.211849	0.845252	1.452649	0.368403	0.728728	0.975986	0.324899	0.753094	1.170707	0.355932	0.725323	0.978518	0.398110	0.734754	0.438378	0.268201	0.871682	0.314886	0.358605	0.604086	0.054086	0.365853	0.850963	0.251036	0.409650	0.906516	0.446994	0.328780	
334	1.3360	0.915337	0.913002	0.479714	0.922171	0.893669	0.242947	0.841535	1.002116	0.518768	0.861783	0.988604	0.206743	0.909461	0.709490	0.512719	0.794779	0.203689	0.360878	0.819172	0.039093	0.354064	0.807792	0.041294	0.447341	0.888962	0.788873	0.183584	0.970485	0.725439	0.190058	0.956464	0.623685	0.167148	0.556353	0.542957	0.280276	0.569100	0.324621	0.281037	0.562042	0.344772	0.192970	0.963733	1.350990	0.377502	0.987116	1.120486	0.371101	0.900497	1.388408	0.556848	0.930689	1.397406	0.194898	0.844247	0.786097	0.540936	0.873300	0.616067	0.497774	0.896364	0.421426	0.261082	0.824261	0.425157	0.212510	0.860242	1.454133	0.368403	0.744441	0.977510	0.324613	0.768811	1.171911	0.356618	0.741097	0.979992	0.397829	0.760411	0.436035	0.268945	0.874612	0.314562	0.357788	0.604769	0.056448	0.365833	0.853969	0.250546	0.408722	0.911822	0.446103	0.328217	
335	1.3400	0.931112	0.914365	0.479503	0.937776	0.895778	0.242756	0.857511	1.004069	0.518439	0.878170	0.990963	0.206983	0.921138	0.709282	0.512450	0.796611	0.204353	0.360526	0.819408	0.039096	0.354088	0.807886	0.041337	0.447355	0.905412	0.791812	0.183048	0.988531	0.730456	0.189511	0.976852	0.628320	0.166995	0.577909	0.533201	0.280944	0.599015	0.315516	0.281437	0.591536	0.335548	0.193328	0.978996	1.353171	0.376243	1.002810	1.122681	0.369476	0.918050	1.390637	0.556248	0.943001	1.399892	0.194015	0.856950	0.786957	0.540553	0.883176	0.616502	0.497214	0.921563	0.423974	0.262012	0.850398	0.424691	0.212874	0.875105	1.455738	0.368434	0.760272	0.979282	0.324312	0.784632	1.173289	0.357361	0.756945	0.981614	0.397538	0.785923	0.433755	0.269808	0.877435	0.314499	0.357092	0.605438	0.059335	0.365848	0.856847	0.250694	0.407899	0.916569	0.445561	0.327689	
336	1.3440	0.946997	0.915835	0.479388	0.953734	0.898402	0.242760	0.873560	1.006021	0.517991	0.894160	0.993341	0.206923	0.932530	0.709342	0.512129	0.798466	0.205390	0.360265	0.819641	0.039165	0.354190	0.808031	0.041419	0.447407	0.921995	0.795162	0.182502	1.006510	0.735695	0.188928	0.997153	0.633179	0.166959	0.599513	0.522942	0.282074	0.629158	0.306151	0.281958	0.620904	0.325810	0.193859	0.994184	1.355605	0.374938	1.019042	1.125490	0.367966	0.935611	1.393129	0.555623	0.955256	1.402649	0.193081	0.869604	0.788059	0.540279	0.892915	0.617223	0.496900	0.948142	0.426008	0.261734	0.875771	0.424318	0.213929	0.889900	1.457465	0.368452	0.776254	0.981278	0.323994	0.800529	1.174822	0.358232	0.772968	0.983471	0.397223	0.811982	0.431524	0.270930	0.880094	0.314719	0.356272	0.606079	0.062657	0.365885	0.859521	0.250728	0.407178	0.920920	0.445387	0.327191	
337	1.3480	0.962884	0.917555	0.479188	0.970034	0.901074	0.242825	0.889777	1.008162	0.517496	0.910437	0.995945	0.206965	0.943609	0.709601	0.511670	0.800378	0.206431	0.360200	0.819992	0.039244	0.354084	0.808176	0.041538	0.447491	0.938598	0.798780	0.182005	1.024436	0.741160	0.188290	1.017066	0.638333	0.166827	0.621236	0.512207	0.283440	0.659881	0.296928	0.282581	0.650794	0.316289	0.194384	1.009448	1.358319	0.373577	1.035034	1.128294	0.366262	0.953085	1.395891	0.554889	0.967380	1.405687	0.192160	0.882278	0.789457	0.539982	0.902750	0.618283	0.496458	0.973535	0.428187	0.262262	0.901410	0.423879	0.214582	0.904525	1.459327	0.368357	0.792349	0.983518	0.323686	0.816570	1.176513	0.359131	0.789122	0.985476	0.396961	0.837339	0.428812	0.271634	0.882983	0.315319	0.355906	0.607283	0.066503	0.366295	0.862104	0.251121	0.406502	0.925707	0.445634	0.326781	
338	1.3520	0.979124	0.918793	0.479377	0.986254	0.904099	0.242753	0.906117	1.010441	0.516907	0.926942	0.998679	0.206991	0.955434	0.710271	0.511503	0.802688	0.208224	0.360104	0.820145	0.039183	0.354070	0.808337	0.041662	0.447626	0.955312	0.802681	0.181402	1.042240	0.746734	0.187687	1.036796	0.643667	0.166770	0.643388	0.501061	0.284640	0.690853	0.287568	0.283239	0.680645	0.307120	0.194984	1.024741	1.361247	0.372233	1.051054	1.131612	0.364656	0.970467	1.398931	0.554075	0.979528	1.408952	0.191275	0.895148	0.791213	0.539691	0.912659	0.619777	0.496023	0.998690	0.430182	0.263519	0.926737	0.423445	0.215373	0.919138	1.461344	0.368273	0.808563	0.985977	0.323417	0.832673	1.178410	0.360131	0.805427	0.987622	0.396654	0.863310	0.426014	0.272217	0.886097	0.316037	0.355610	0.608393	0.070681	0.366525	0.865062	0.252229	0.406475	0.930240	0.446557	0.326404	
339	1.3560	0.995377	0.920367	0.479349	1.002578	0.907302	0.242725	0.922592	1.012896	0.516208	0.943359	1.001703	0.206974	0.967099	0.711218	0.511035	0.805310	0.210347	0.360462	0.820447	0.039304	0.354094	0.808555	0.041851	0.447787	0.972101	0.806812	0.180814	1.060040	0.752423	0.187160	1.056433	0.649153	0.166712	0.665759	0.489450	0.286124	0.722348	0.278250	0.283660	0.710907	0.297568	0.195720	1.039986	1.364463	0.370896	1.067172	1.135275	0.362994	0.987737	1.402229	0.553162	0.991519	1.412480	0.190345	0.908350	0.793320	0.539343	0.922419	0.621645	0.495506	1.024116	0.432873	0.264443	0.951770	0.423161	0.216175	0.933950	1.463552	0.368497	0.824923	0.988719	0.323177	0.848885	1.180432	0.361173	0.821844	0.989985	0.396412	0.887877	0.424062	0.272864	0.889759	0.317619	0.355694	0.609721	0.075482	0.367073	0.868201	0.254050	0.406681	0.935017	0.447967	0.326105	
